G75*
G70*
%OFA0B0*%
%FSLAX24Y24*%
%IPPOS*%
%LPD*%
%AMOC8*
5,1,8,0,0,1.08239X$1,22.5*
%
%ADD10C,0.0860*%
%ADD11C,0.0436*%
%ADD12C,0.0160*%
D10*
X002940Y001690D03*
X003940Y001690D03*
X004940Y001690D03*
X005940Y001690D03*
X006940Y001690D03*
X007940Y001690D03*
D11*
X006690Y002690D03*
X005815Y002940D03*
X005315Y002565D03*
X004690Y002565D03*
X007065Y004315D03*
X008940Y003315D03*
X004440Y004440D03*
X003690Y004440D03*
X003065Y004440D03*
X001440Y004690D03*
X001440Y006690D03*
D12*
X001873Y000719D02*
X009006Y000719D01*
X008969Y000735D01*
X008735Y000969D01*
X008608Y001274D01*
X008608Y001605D01*
X008735Y001910D01*
X008969Y002144D01*
X009274Y002271D01*
X009605Y002271D01*
X009910Y002144D01*
X010144Y001910D01*
X010160Y001873D01*
X010160Y005756D01*
X010144Y005719D01*
X009910Y005485D01*
X009605Y005358D01*
X009274Y005358D01*
X008969Y005485D01*
X008735Y005719D01*
X008608Y006024D01*
X008608Y006355D01*
X008735Y006660D01*
X008969Y006894D01*
X009006Y006910D01*
X001439Y006910D01*
X001327Y006901D01*
X001113Y006831D01*
X000930Y006699D01*
X000798Y006516D01*
X000728Y006302D01*
X000719Y006190D01*
X000719Y006134D01*
X000719Y001873D01*
X000735Y001910D01*
X000969Y002144D01*
X001274Y002271D01*
X001605Y002271D01*
X001910Y002144D01*
X002144Y001910D01*
X002271Y001605D01*
X002271Y001274D01*
X002144Y000969D01*
X001910Y000735D01*
X001873Y000719D01*
X001904Y000732D02*
X008975Y000732D01*
X008813Y000891D02*
X002066Y000891D01*
X002178Y001049D02*
X008701Y001049D01*
X008636Y001208D02*
X008280Y001208D01*
X008249Y001185D02*
X008166Y001143D01*
X008078Y001114D01*
X007986Y001100D01*
X007968Y001099D01*
X007968Y001661D01*
X007968Y001718D01*
X007911Y001718D01*
X007911Y002279D01*
X007893Y002279D01*
X007801Y002265D01*
X007713Y002236D01*
X007630Y002194D01*
X007555Y002140D01*
X007489Y002074D01*
X007471Y002049D01*
X007469Y002050D01*
X007469Y002995D01*
X007427Y003098D01*
X007348Y003177D01*
X006365Y004160D01*
X006676Y004160D01*
X006710Y004078D01*
X006828Y003960D01*
X006981Y003896D01*
X007148Y003896D01*
X007301Y003960D01*
X007419Y004078D01*
X007483Y004231D01*
X007483Y004398D01*
X007419Y004551D01*
X007301Y004669D01*
X007148Y004733D01*
X006981Y004733D01*
X006950Y004719D01*
X006884Y004719D01*
X004751Y004719D01*
X004676Y004794D01*
X004523Y004858D01*
X004356Y004858D01*
X004203Y004794D01*
X004085Y004676D01*
X004065Y004627D01*
X004044Y004676D01*
X003926Y004794D01*
X003773Y004858D01*
X003606Y004858D01*
X003453Y004794D01*
X003377Y004718D01*
X003301Y004794D01*
X003148Y004858D01*
X002981Y004858D01*
X002828Y004794D01*
X002710Y004676D01*
X002646Y004523D01*
X002646Y004356D01*
X002710Y004203D01*
X002828Y004085D01*
X002981Y004021D01*
X003087Y004021D01*
X003827Y003281D01*
X003889Y003219D01*
X003305Y003219D01*
X001858Y004667D01*
X001858Y004773D01*
X001794Y004926D01*
X001676Y005044D01*
X001523Y005108D01*
X001356Y005108D01*
X001203Y005044D01*
X001085Y004926D01*
X001021Y004773D01*
X001021Y004606D01*
X001085Y004453D01*
X001203Y004335D01*
X001356Y004271D01*
X001462Y004271D01*
X003031Y002702D01*
X003134Y002660D01*
X003245Y002660D01*
X004199Y002660D01*
X004271Y002587D01*
X004271Y002481D01*
X004335Y002328D01*
X004453Y002210D01*
X004535Y002176D01*
X004439Y002080D01*
X004296Y002224D01*
X004065Y002319D01*
X003814Y002319D01*
X003583Y002224D01*
X003439Y002080D01*
X003296Y002224D01*
X003065Y002319D01*
X002814Y002319D01*
X002583Y002224D01*
X002405Y002046D01*
X002310Y001815D01*
X002310Y001564D01*
X002405Y001333D01*
X002583Y001155D01*
X002814Y001060D01*
X003065Y001060D01*
X003296Y001155D01*
X003439Y001299D01*
X003583Y001155D01*
X003814Y001060D01*
X004065Y001060D01*
X004296Y001155D01*
X004439Y001299D01*
X004583Y001155D01*
X004814Y001060D01*
X005065Y001060D01*
X005296Y001155D01*
X005439Y001299D01*
X005583Y001155D01*
X005814Y001060D01*
X006065Y001060D01*
X006296Y001155D01*
X006439Y001299D01*
X006583Y001155D01*
X006814Y001060D01*
X007065Y001060D01*
X007296Y001155D01*
X007471Y001330D01*
X007489Y001305D01*
X007555Y001239D01*
X007630Y001185D01*
X007713Y001143D01*
X007801Y001114D01*
X007893Y001100D01*
X007911Y001100D01*
X007911Y001661D01*
X007968Y001661D01*
X008529Y001661D01*
X008529Y001643D01*
X008515Y001551D01*
X008486Y001463D01*
X008444Y001380D01*
X008390Y001305D01*
X008324Y001239D01*
X008249Y001185D01*
X008434Y001366D02*
X008608Y001366D01*
X008608Y001525D02*
X008506Y001525D01*
X008529Y001718D02*
X008529Y001736D01*
X008515Y001828D01*
X008486Y001916D01*
X008444Y001999D01*
X008390Y002074D01*
X008324Y002140D01*
X008249Y002194D01*
X008166Y002236D01*
X008078Y002265D01*
X007986Y002279D01*
X007968Y002279D01*
X007968Y001718D01*
X008529Y001718D01*
X008641Y001684D02*
X007968Y001684D01*
X007968Y001842D02*
X007911Y001842D01*
X007911Y002001D02*
X007968Y002001D01*
X007968Y002159D02*
X007911Y002159D01*
X007582Y002159D02*
X007469Y002159D01*
X007469Y002318D02*
X010160Y002318D01*
X010160Y002476D02*
X007469Y002476D01*
X007469Y002635D02*
X010160Y002635D01*
X010160Y002793D02*
X007469Y002793D01*
X007469Y002952D02*
X010160Y002952D01*
X010160Y003110D02*
X007415Y003110D01*
X007256Y003269D02*
X010160Y003269D01*
X010160Y003427D02*
X007097Y003427D01*
X006939Y003586D02*
X010160Y003586D01*
X010160Y003745D02*
X006780Y003745D01*
X006622Y003903D02*
X006965Y003903D01*
X007164Y003903D02*
X010160Y003903D01*
X010160Y004062D02*
X007403Y004062D01*
X007478Y004220D02*
X010160Y004220D01*
X010160Y004379D02*
X007483Y004379D01*
X007425Y004537D02*
X010160Y004537D01*
X010160Y004696D02*
X007236Y004696D01*
X006940Y004440D02*
X007065Y004315D01*
X006940Y004440D02*
X004440Y004440D01*
X004105Y004696D02*
X004024Y004696D01*
X003780Y004854D02*
X004349Y004854D01*
X004530Y004854D02*
X010160Y004854D01*
X010160Y005013D02*
X001707Y005013D01*
X001824Y004854D02*
X002974Y004854D01*
X003155Y004854D02*
X003599Y004854D01*
X003690Y004440D02*
X004190Y003940D01*
X006190Y003940D01*
X007190Y002940D01*
X007190Y001940D01*
X006940Y001690D01*
X007349Y001208D02*
X007599Y001208D01*
X007911Y001208D02*
X007968Y001208D01*
X007968Y001366D02*
X007911Y001366D01*
X007911Y001525D02*
X007968Y001525D01*
X008510Y001842D02*
X008707Y001842D01*
X008825Y002001D02*
X008443Y002001D01*
X008297Y002159D02*
X009005Y002159D01*
X009874Y002159D02*
X010160Y002159D01*
X010160Y002001D02*
X010054Y002001D01*
X006690Y002690D02*
X006440Y002940D01*
X005815Y002940D01*
X005315Y002565D02*
X004440Y003440D01*
X004065Y003440D01*
X003065Y004440D01*
X002730Y004696D02*
X001858Y004696D01*
X001988Y004537D02*
X002652Y004537D01*
X002646Y004379D02*
X002146Y004379D01*
X002305Y004220D02*
X002703Y004220D01*
X002884Y004062D02*
X002463Y004062D01*
X002622Y003903D02*
X003205Y003903D01*
X003364Y003745D02*
X002780Y003745D01*
X002939Y003586D02*
X003522Y003586D01*
X003681Y003427D02*
X003097Y003427D01*
X003256Y003269D02*
X003839Y003269D01*
X004315Y002940D02*
X003190Y002940D01*
X001440Y004690D01*
X001055Y004854D02*
X000719Y004854D01*
X000719Y004696D02*
X001021Y004696D01*
X001050Y004537D02*
X000719Y004537D01*
X000719Y004379D02*
X001159Y004379D01*
X001513Y004220D02*
X000719Y004220D01*
X000719Y004062D02*
X001671Y004062D01*
X001830Y003903D02*
X000719Y003903D01*
X000719Y003745D02*
X001989Y003745D01*
X002147Y003586D02*
X000719Y003586D01*
X000719Y003427D02*
X002306Y003427D01*
X002464Y003269D02*
X000719Y003269D01*
X000719Y003110D02*
X002623Y003110D01*
X002781Y002952D02*
X000719Y002952D01*
X000719Y002793D02*
X002940Y002793D01*
X003069Y002318D02*
X003810Y002318D01*
X004069Y002318D02*
X004345Y002318D01*
X004361Y002159D02*
X004518Y002159D01*
X004274Y002476D02*
X000719Y002476D01*
X000719Y002318D02*
X002810Y002318D01*
X002518Y002159D02*
X001874Y002159D01*
X002054Y002001D02*
X002386Y002001D01*
X002321Y001842D02*
X002172Y001842D01*
X002238Y001684D02*
X002310Y001684D01*
X002326Y001525D02*
X002271Y001525D01*
X002271Y001366D02*
X002391Y001366D01*
X002530Y001208D02*
X002243Y001208D01*
X003349Y001208D02*
X003530Y001208D01*
X004349Y001208D02*
X004530Y001208D01*
X005349Y001208D02*
X005530Y001208D01*
X006349Y001208D02*
X006530Y001208D01*
X004690Y002565D02*
X004315Y002940D01*
X004223Y002635D02*
X000719Y002635D01*
X000719Y002159D02*
X001005Y002159D01*
X000825Y002001D02*
X000719Y002001D01*
X003361Y002159D02*
X003518Y002159D01*
X006463Y004062D02*
X006726Y004062D01*
X008806Y005647D02*
X000719Y005647D01*
X000719Y005806D02*
X008699Y005806D01*
X008633Y005964D02*
X000719Y005964D01*
X000719Y006123D02*
X008608Y006123D01*
X008608Y006281D02*
X000727Y006281D01*
X000773Y006440D02*
X008644Y006440D01*
X008709Y006598D02*
X000857Y006598D01*
X001011Y006757D02*
X008831Y006757D01*
X010073Y005647D02*
X010160Y005647D01*
X010160Y005489D02*
X009914Y005489D01*
X010160Y005330D02*
X000719Y005330D01*
X000719Y005171D02*
X010160Y005171D01*
X008965Y005489D02*
X000719Y005489D01*
X000719Y005013D02*
X001172Y005013D01*
M02*
