G75*
G70*
%OFA0B0*%
%FSLAX24Y24*%
%IPPOS*%
%LPD*%
%AMOC8*
5,1,8,0,0,1.08239X$1,22.5*
%
%ADD10C,0.1162*%
%ADD11R,0.0651X0.0312*%
%ADD12R,0.0312X0.0651*%
%ADD13R,0.0312X0.0560*%
%ADD14R,0.0296X0.0926*%
%ADD15C,0.0920*%
%ADD16R,0.0560X0.0560*%
%ADD17R,0.0690X0.0572*%
%ADD18R,0.0690X0.0520*%
%ADD19R,0.0720X0.0060*%
%ADD20R,0.0572X0.0651*%
%ADD21R,0.0532X0.0532*%
%ADD22R,0.0651X0.0572*%
%ADD23C,0.0496*%
D10*
X001440Y001440D03*
X009440Y001440D03*
X009440Y006190D03*
D11*
X007836Y004936D03*
X007836Y004440D03*
X007836Y003943D03*
X006293Y003943D03*
X006293Y004440D03*
X006293Y004936D03*
D12*
X007065Y003668D03*
D13*
X007068Y005188D03*
D14*
X004940Y005463D03*
X004440Y005463D03*
X003940Y005463D03*
X003440Y005463D03*
X003440Y003416D03*
X003940Y003416D03*
X004440Y003416D03*
X004940Y003416D03*
D15*
X004940Y001690D03*
X005940Y001690D03*
X006940Y001690D03*
X007940Y001690D03*
X003940Y001690D03*
X002940Y001690D03*
D16*
X001440Y003290D03*
X001440Y004090D03*
D17*
X001440Y005296D03*
X001440Y006083D03*
X008190Y005921D03*
X008190Y006708D03*
D18*
X008940Y004740D03*
X008940Y004140D03*
D19*
X008940Y004440D03*
D20*
X006564Y006190D03*
X005816Y006190D03*
D21*
X002440Y005853D03*
X002440Y005026D03*
D22*
X002440Y004064D03*
X002440Y003316D03*
D23*
X003065Y004440D03*
X003690Y004440D03*
X004440Y004440D03*
X005815Y002940D03*
X005315Y002565D03*
X004690Y002565D03*
X006690Y002690D03*
X007065Y004315D03*
X008940Y003315D03*
X001440Y004690D03*
X001440Y006690D03*
M02*
